# xmcd
#
# Track frame offsets: 
#        150
#        17069
#        39412
#        58840
#        75389
#        95735
#        111234
#        128796
#        144708
#        157303
#
# Disc length: 2328 seconds
#
# Revision: 0
# Processed by: cddbd v1.5.2PL0 Copyright (c) Steve Scherf et al.
# Submitted via: ExactAudioCopy v0.95b4
#
DISCID=8909160a
DTITLE=Honeybrowne - Mile By Mile
DYEAR=2008
DGENRE=Country
TTITLE0=Help Me Find My Way
TTITLE1=Yesterday's News
TTITLE2=Mile By Mile
TTITLE3=Love Wanted
TTITLE4=Left Me a Mess
TTITLE5=Bowling Green
TTITLE6=Personal Lullaby
TTITLE7=Trouble's Got a Thing For Me
TTITLE8=Line Sinker and Hook
TTITLE9=Put That Ring Back on Your Finger
EXTD=
EXTT0=
EXTT1=
EXTT2=
EXTT3=
EXTT4=
EXTT5=
EXTT6=
EXTT7=
EXTT8=
EXTT9=
PLAYORDER=
